<svg width="40" height="35" viewBox="0 0 40 35" fill="none" xmlns="http://www.w3.org/2000/svg">
<path fill-rule="evenodd" clip-rule="evenodd" d="M8.98339 14.7656L18.4536 6.47918L19.6321 7.51038L10.1619 15.7968L8.98339 14.7656Z" fill="#999999"/>
<path fill-rule="evenodd" clip-rule="evenodd" d="M12.1258 17.5155L21.596 9.22906L22.7745 10.2603L13.3044 18.5467L12.1258 17.5155Z" fill="#999999"/>
<path fill-rule="evenodd" clip-rule="evenodd" d="M18.8041 23.359L28.2742 15.0726L29.4528 16.1038L19.9826 24.3902L18.8041 23.359Z" fill="#999999"/>
<path fill-rule="evenodd" clip-rule="evenodd" d="M21.9466 26.1086L31.4168 17.8222L32.5953 18.8534L23.1252 27.1398L21.9466 26.1086Z" fill="#999999"/>
<path fill-rule="evenodd" clip-rule="evenodd" d="M21.9468 26.1088C18.6779 28.9691 13.3897 28.9794 10.1354 26.1318C6.88099 23.2842 6.89277 18.6571 10.1617 15.7968L8.98315 14.7656C5.06048 18.198 5.04634 23.7505 8.95159 27.1676C12.8568 30.5847 19.2026 30.5723 23.1253 27.14L21.9468 26.1088Z" fill="#999999"/>
<path fill-rule="evenodd" clip-rule="evenodd" d="M28.2744 15.0723L29.4529 16.1035C32.5039 13.4339 32.5149 9.11525 29.4775 6.45752C26.4401 3.79978 21.5045 3.8094 18.4535 6.479L19.632 7.5102C22.0292 5.41266 25.9072 5.4051 28.2937 7.49332C30.6803 9.58154 30.6716 12.9748 28.2744 15.0723Z" fill="#999999"/>
<path fill-rule="evenodd" clip-rule="evenodd" d="M12.1261 17.5157C9.94683 19.4226 9.93898 22.5074 12.1086 24.4057C14.2781 26.3041 17.8036 26.2973 19.9828 24.3904L18.8043 23.3592C17.2788 24.694 14.811 24.6988 13.2923 23.3699C11.7736 22.0411 11.7791 19.8817 13.3046 18.5469L12.1261 17.5157Z" fill="#999999"/>
</svg>
